<svg xmlns="http://www.w3.org/2000/svg" version="1.1" width="600px" height="600px" viewBox="0 0 200 200" style="overflow:hidden!important;"><defs id="SvgjsDefs33403"></defs><g id="svga-group-wrapper"><g id="svga-group-backs-single"><path id="SvgjsPath34103" d="M0 0h200v200H0V0z" fill="#547980" stroke-width="none" opacity="1"></path><path id="SvgjsPath34104" d="M165.5 23.7c11.7 0 21.1 9.5 21.1 21.1S177.2 66 165.5 66s-21.1-9.5-21.1-21.1 9.4-21.2 21.1-21.2zm-77.3 86.5c11.7 0 21.1 9.5 21.1 21.1s-9.5 21.1-21.1 21.1-21.1-9.5-21.1-21.1 9.4-21.1 21.1-21.1zm-37.8 48.9c9.1 0 16.6 7.4 16.6 16.6s-7.4 16.6-16.6 16.6-16.6-7.4-16.6-16.6 7.5-16.6 16.6-16.6zm-.3-132.8c9.1 0 16.6 7.4 16.6 16.6s-7.4 16.6-16.6 16.6S33.5 52 33.5 42.8s7.4-16.5 16.6-16.5zm60.3-7.2c2.7 0 4.8 2.2 4.8 4.8s-2.2 4.8-4.8 4.8-4.8-2.2-4.8-4.8 2.1-4.8 4.8-4.8zm-91.5 97.1c2.7 0 4.8 2.2 4.8 4.8s-2.2 4.8-4.8 4.8-4.8-2.2-4.8-4.8 2.1-4.8 4.8-4.8zm120-5.7c4.8 0 8.8 3.9 8.8 8.8s-3.9 8.8-8.8 8.8-8.8-3.9-8.8-8.8 4-8.8 8.8-8.8z" fill="#3f6971" stroke-width="none" opacity="1"></path><path id="SvgjsPath34105" d="M101.8 45.4c14.2 0 25.8 11.5 25.8 25.8S116 97 101.8 97 76 85.4 76 71.2s11.5-25.8 25.8-25.8zm21.6 117.7c7.5 0 13.6 6.1 13.6 13.6s-6.1 13.6-13.6 13.6-13.6-6.1-13.6-13.6 6-13.6 13.6-13.6zm-88.6-35.9c7.2 0 13 5.8 13 12.9S42 153 34.8 153s-13-5.8-13-12.9 5.8-12.9 13-12.9zM55 88.8c2.1 0 3.8 1.7 3.8 3.8s-1.7 3.8-3.8 3.8-3.8-1.7-3.8-3.8 1.7-3.8 3.8-3.8zm44.9 78.4c2.1 0 3.8 1.7 3.8 3.8s-1.7 3.8-3.8 3.8-3.8-1.7-3.8-3.8 1.7-3.8 3.8-3.8zm79.9-82.1c2.1 0 3.8 1.7 3.8 3.8s-1.7 3.8-3.8 3.8-3.8-1.7-3.8-3.8 1.7-3.8 3.8-3.8zM66.7 16.5c2.1 0 3.8 1.7 3.8 3.8s-1.7 3.8-3.8 3.8-3.8-1.7-3.8-3.8 1.7-3.8 3.8-3.8zm-46.8-4.3c2.7 0 4.8 2.2 4.8 4.8s-2.2 4.8-4.8 4.8-4.8-2.2-4.8-4.8 2.1-4.8 4.8-4.8zM15.5 180c2.7 0 4.8 2.2 4.8 4.8s-2.2 4.8-4.8 4.8-4.8-2.2-4.8-4.8 2.2-4.8 4.8-4.8zM149.1 77.2c4.7 0 8.4 3.8 8.4 8.4s-3.8 8.4-8.4 8.4-8.4-3.8-8.4-8.4 3.7-8.4 8.4-8.4zM145.8 5c4.7 0 8.4 3.8 8.4 8.4s-3.8 8.4-8.4 8.4-8.4-3.8-8.4-8.4 3.7-8.4 8.4-8.4zM35.3 70.3c4.8 0 8.8 3.9 8.8 8.8s-3.9 8.8-8.8 8.8-8.8-3.9-8.8-8.8 4-8.8 8.8-8.8zm127.8 58.9c14 0 25.3 11.3 25.3 25.3s-11.3 25.3-25.3 25.3-25.3-11.3-25.3-25.3 11.4-25.3 25.3-25.3z" fill="#2c5961" stroke-width="none" opacity="1"></path></g><g id="svga-group-humanwrap-move" transform="matrix(1,0,0,1,0,0)"><g id="svga-group-humanwrap" transform="matrix(1,0,0,1,0,0)"><g id="svga-group-hair-back-move" transform="matrix(1,0,0,1,0,0)"><g id="svga-group-hair-back" transform="matrix(1,0,0,1,0,0)"></g></g><g id="svga-group-humanbody-back"><path id="SvgjsPath33804" d="M166.5 181.1c-10.9-6.6-27.6-8.4-35-12.1-4.9-2.5-9.1-4.7-8.9-17.8s1.9-42.4 1.9-42.4H75.4s1.6 29.4 1.9 42.4-4.2 15.6-8.9 17.8c-7.4 3.5-24.1 5.4-35 12.1-10.8 6.6-10 18.9-10 18.9v19.7h153.3V200c-.1 0 .7-12.3-10.2-18.9z" fill="#d79468" stroke-width="none" opacity="1" stroke="none"></path></g><g id="svga-group-chinshadow-single"><path id="SvgjsPath34071" d="M75.4 109c.1 2.5 1.6 29.8 1.9 42.2 6.6 6.3 8.6 13.4 10.5 15.7 2 2.4 8.9 2.4 12.2 1.5 3.3.9 10.2.9 12.2-1.5 1.9-2.3 3.9-9.4 10.4-15.6v-.1c.2-12.5 1.8-39.7 1.9-42.2H75.4z" fill="#b86934" stroke-width="none" opacity="0.65" stroke="none"></path></g><g id="svga-group-humanbody-front"><path id="SvgjsPath33805" d="M78.7 156.8c.5 4.8 1.7 9.4 3.1 13.9.8 2.3 1.6 4.6 2.6 6.9.8 2 1.7 4.2 3.1 5.9.3.4 1 0 .9-.5-.5-2.2-1.6-4.3-2.4-6.4-.9-2.2-1.7-4.4-2.5-6.6-1.5-4.4-2.8-8.9-4.1-13.3-.2-.4-.8-.3-.7.1zm41.3-1c-1.3 8.2-3.9 16.1-5.4 24.2-.1.4.4.5.6.2 3.1-7.7 4.1-16.1 5.1-24.3-.1-.2-.3-.2-.3-.1zm-25.8 11.9c-.9 3.6 1.9 8.6 6.2 7.6.5-.1.4-.8 0-1-1.4-.5-2.9-.9-3.9-2.1-1.1-1.2-1.5-2.9-1.4-4.5 0-.4-.8-.5-.9 0z" fill="#b86934" stroke-width="none" opacity="1" stroke="none"></path><path id="SvgjsPath33806" d="M177.3 219.7c-.1-6.6-.3-13.1-.3-19.7l-.3-.3c.1 0 .1 0 .2.1s.1.2.1.1v-1.4c0-.5-.1-.9-.1-1.4-.1-.9-.3-1.9-.5-2.8-.5-1.8-1.1-3.6-2-5.3-1.7-3.4-4.4-6.2-7.7-8.1-3.6-2.2-7.6-3.8-11.6-5.1-4-1.3-8.1-2.4-12.1-3.5-4-1.2-8.1-2.2-11.8-4.2-1.9-1-3.6-2.1-4.8-3.6-1.2-1.6-1.9-3.5-2.3-5.5-.8-4-.4-8.2-.3-12.4l.7-12.6 1.5-25.2.1-1.4h-1.4c-8.2 0-16.4 0-24.6.1l-24.6.3h-.9l.1.9c.8 11.9 1.6 23.8 2.1 35.7.1 3 .3 6 .2 8.9-.1 2.9-.4 5.9-1.6 8.6-.6 1.3-1.4 2.5-2.4 3.5s-2.3 1.8-3.6 2.4c-2.6 1.3-5.4 2.2-8.3 3-5.8 1.5-11.6 2.8-17.3 4.7-2.8.9-5.7 2-8.4 3.4-1.3.7-2.7 1.4-4 2.4-1.3.9-2.4 1.9-3.5 3.1-2.1 2.3-3.6 5.2-4.5 8.1-.5 1.5-.8 3-1 4.6-.1.8-.1 1.6-.1 2.4v2.3l-.2 17.9v1.3h1.4l38.3.2c12.8.1 25.5.1 38.3 0 12.8-.1 25.6-.1 38.3-.3 12.8-.2 25.6-.5 38.3-.7h.6v-.5zm-77.2-1.6H61.8l-37 .2-.1-16.6v-2.2c0-.7 0-1.4.1-2.1.1-1.4.4-2.8.8-4.2.8-2.7 2.1-5.3 3.9-7.5.9-1.1 2-2.1 3.1-2.9 1.1-.9 2.4-1.6 3.7-2.3 2.6-1.4 5.3-2.5 8.1-3.5 5.6-2 11.4-3.4 17.1-5.1 2.9-.8 5.8-1.7 8.5-3.1 1.3-.7 2.7-1.5 3.8-2.6 1.1-1.1 2-2.4 2.6-3.9 1.2-2.9 1.5-5.9 1.6-8.9 0-3-.1-6-.2-9l-1.3-34.8 23.5.4c7.7.1 15.4.1 23.1.1-.4 7.9-.8 15.9-1.1 23.8-.2 4.2-.2 8.4-.3 12.6 0 4.2-.2 8.5.8 12.8.5 2.1 1.3 4.2 2.8 6 1.4 1.7 3.4 2.9 5.3 3.8 3.9 1.9 8 2.8 12.1 3.8s8.2 2 12.2 3.3c4 1.3 7.9 2.8 11.5 5 3.2 1.9 5.8 4.7 7.5 8 .9 1.6 1.5 3.4 1.9 5.2.2.9.4 1.8.4 2.7.1.5.1.9.1 1.4V200l-.3 19c-12.6-.2-25.1-.5-37.7-.7-12.7-.1-25.5-.1-38.2-.2z" fill="#a9561f" stroke-width="none" opacity="1" stroke="none"></path></g><g id="svga-group-clothes-single"><path id="SvgjsPath33948" d="M129.8 165.2c-1.6-4-5.9-16.6-5.9-16.6-1.3 3.6-4.1 12-9 16-4.3 3.6-13 11.4-14.8 13-1.8-1.6-10.5-9.4-14.8-13-4.9-4-7.6-12.2-8.9-15.8 0 0-4.4 12.4-6 16.5 0 0 6.3 26.5 8.6 31.5 0 0 .1-.1.2-.4.3 2.6.7 5.1 1.3 7.3 2.9 10.7 8.6 17.9 8.6 17.9h21.7s10.3-13.7 11.6-23.8c.2-1.9.4-3.9.4-5.8 2.8-9.3 7-26.8 7-26.8z" fill="#ffffff" stroke-width="none" opacity="1"></path><path id="SvgjsPath33949" d="M96 196.2s-5.3-10.6-5.9-13.8c0 0 11.2-12.1 20.3 1.1l-5.2 12.7s3.3 17.4 3.3 23.9H92.1s1.3-16.5 3.9-23.9z" fill="#222222" stroke-width="none" opacity="1"></path><path id="SvgjsPath33950" d="M110.8 183.2c-2.7-3.9-5.9-6.1-9.5-6.4-6.3-.5-11.4 5-11.6 5.2-.1.1-.2.3-.1.4.5 3 5.1 12.2 5.8 13.7-2.6 7.5-3.8 23.2-3.9 23.8 0 .1 0 1.3.1 1.4s.2.2.4.2h16.4c.3 0 .5-1.2.5-1.5 0-6.3-2.9-22-3.3-23.9l5.2-12.5c.1 0 .1-.2 0-.4zm-6.1 12.8c0 .1-.1.2 0 .3 0 .2 3.1 16.5 3.3 23.3H92.6c.2-2.9 1.6-16.7 3.9-23.2.1-.1 0-.3 0-.4-.1-.1-5.1-10-5.8-13.4.9-.9 5.5-5.1 10.6-4.7 3.2.2 6.1 2.1 8.6 5.7l-5.2 12.4z" fill="#672208" stroke-width="none" opacity="1"></path><path id="SvgjsPath33951" d="M97.1 188.9c-.9 2.4 1.6 7 1.6 7 .5-4.1-.7-9.4-1.6-7zm6.4-1.6c-1.7.7-1.8 7.9-1.8 7.9 1.8-2.8 3.5-8.6 1.8-7.9zm-.8 14.9c0 1.1.2 5.5 1.4 4.1 1.2-1.4-1.2-7.8-1.2-7.8s-.2 2.6-.2 3.7zm-3.7 2.9c-.5 3.9 1.4 5.2 1.7 2.4.3-2.8-.3-9.2-.3-9.2s-.9 2.9-1.4 6.8zm-2.2-1.4c.7 1.4 1.4-3.3 1.2-5 0-.1-1.9 3.6-1.2 5z" fill="#000000" stroke-width="none" opacity="1"></path><path id="SvgjsPath33952" d="M71.3 157.1s-10.6 8-16.5 10.6l2.3 2.6s-22.3 5.2-26.9 6.7-6.7 3.6-6.7 3.6-1.7-1.3-4.2.2-3.6 39.4-3.6 39.4h72.6s-10.9-23.9-17.6-58.4c.1-.1.6-2.6.6-4.7zm112.9 63s-1.1-37.9-3.6-39.4-4.2-.2-4.2-.2-2.1-2.1-6.7-3.6-26.9-6.7-26.9-6.7l2.3-2.6c-5.9-2.5-16.5-10.6-16.5-10.6 0 2.1.6 4.6.6 4.6-6.7 34.5-17.6 58.4-17.6 58.4l72.6.1z" fill="#864025" stroke-width="none" opacity="1"></path><path id="SvgjsPath33953" d="M184.1 198c-.3-3.7-.6-7.4-1.1-11-.3-1.9-.5-3.7-1.1-5.6-.1-.2-.2-.5-.4-.8-.1-.1-.2-.3-.4-.4l-.4-.2c-.4-.2-.9-.4-1.5-.5-.9-.2-1.8-.1-2.7.3-2.4-1.9-5.1-2.9-7.8-3.6-2.9-.8-5.8-1.4-8.6-2.1l-16.7-4 2-2.1.1-.1c.1-.2 0-.4-.2-.5-1.5-.6-2.9-1.5-4.2-2.3-1.4-.9-2.7-1.8-4.1-2.7-2.7-1.9-5.3-3.8-7.9-5.8-.1-.1-.3-.2-.4-.2l-1.2.3s-3-7.8-3.7-8.7c-.6 1.3-1.4 4.2-4 9.4-1.1 1.9-3 4.5-5.5 6.5-2.7 2.1-5.2 4.3-7.7 6.5-2.2 1.9-4.3 3.9-6.4 5.8-2.1-1.9-4.2-3.9-6.4-5.8-2.5-2.2-5.1-4.4-7.7-6.4-7.4-6.9-7.1-10-9.2-15-.3-.5-.5-.5-.5-.5l-3.8 7.9c-.2-.1-1.4 0-1.6.1-2.6 2-5.2 3.9-7.8 5.8-1.3.9-2.7 1.8-4.1 2.7-1.4.9-2.8 1.7-4.2 2.3 0 0-.1 0-.1.1-.2.1-.2.4 0 .5l2 2.1-16.7 4c-2.9.7-5.7 1.4-8.6 2.1-2.8.7-5.5 1.8-7.8 3.6-.9-.4-1.8-.5-2.7-.3-.5.1-1 .3-1.5.5-.1.1-.2.1-.4.2l-.4.4c-.2.3-.3.5-.4.8-.6 1.9-.9 3.7-1.1 5.6-.5 3.7-.8 7.4-1.1 11-.5 7.4-.9 14.7-1.2 22.1 0 .6.5 1.1 1.1 1.1 12.2 0 24.9.5 37.1.3l36.2.1c-.1-.4-.8-2.1-.9-2.4l-.3-.9-.7-1.8c-.4-1.2-.9-2.4-1.3-3.6-.8-2.4-1.7-4.8-2.5-7.2-1.2-3.5-2.2-7-3.3-10.5.9-1.6 1.9-3.2 3-4.7.8-1 1.6-1.9 2.4-2.8.4-.4.9-.8 1.4-1.2l1.5-1.2c1-.8 1.9-1.7 2.8-2.7.4-.5.9-1 1.2-1.5.2-.2.4-.5.6-.6.1-.1.3-.3.6-.4.9-.5 2.1-.9 3.3-1.2.6-.1 5.7-.1 6.3 0 1.2.3 2.3.6 3.3 1.2.2.1.4.3.6.4l.6.6 1.2 1.5c.9 1 1.8 1.8 2.8 2.7l1.5 1.2c.5.4.9.8 1.4 1.2.9.8 1.7 1.8 2.4 2.8 1.1 1.5 2.1 3.1 3 4.7-1.1 3.5-2.1 7-3.3 10.5-.8 2.4-1.6 4.8-2.5 7.2-.4 1.2-.9 2.4-1.3 3.6l-.7 1.8-.3.9c-.1.3-1 1.9-1.1 2.4l36.7-.7c12.2.2 24.5.4 36.7.3.6 0 1-.5 1-1.1-.4-7.3-.8-14.6-1.3-22zM16.9 219c.2-7 .4-14 .8-20.9.2-3.7.5-7.3.9-10.9.2-1.8.4-3.7.9-5.3.1-.2.1-.4.2-.5 0-.1.1-.1 0-.1 0 0 .1-.1.2-.1.4-.2.7-.4 1.1-.4.7-.2 1.6-.1 2.1.2.2.1.5.1.6 0 1.8 2.7 3.1 5.6 4 8.6.5 1.6.8 3.2 1 4.9.2 1.7.5 3.3.6 5l1.1 10.1c.4 3.1.8 6.3 1.3 9.4H16.9zm34.8.4-19.6-.3c.2-3.2.2-6.4.1-9.6-.1-3.4-.3-6.8-.7-10.3-.2-1.7-.4-3.4-.8-5.1-.3-1.7-.8-3.4-1.4-5.1-1.2-3.1-3-5.9-5.4-8.1 1-.9 2.2-1.7 3.5-2.3 1.3-.6 2.6-1.1 4.1-1.6 2.8-.8 5.7-1.6 8.5-2.3 5.7-1.4 11.5-2.9 17.2-4.1.6.6 1.2 1.1 2 1.6-.2.2-.5.3-.7.5-1.2.8-2.5 1.6-3.7 2.3-.3.2-.5.6-.4 1 1.5 3.8 3.1 7.6 4.7 11.4 1.6 3.8 3.3 7.5 5 11.2 1.8 3.7 3.6 7.4 5.5 11 1 1.8 1.9 3.6 3 5.4 1 1.7 2 3.3 3.1 4.9l-24-.5zm33.5-6.2c.5 1.2 1 2.4 1.5 3.5.3.6.5 1.2.8 1.7l.4.9c.2.3.2.6.4.8l-12.4-.2c-1.8-3.6-3.4-7.2-5-10.8L66 197.7l-5-11.2-4.8-10.6c2.3-1.5 4.5-3.2 6.6-4.9 1.1-.9 2.3-1.9 3.4-2.9s2.2-1.9 3.3-3c-2.4 1.7-4.8 3.4-7.3 5-.9.6-1.7 1.2-2.6 1.8-.5-.8-1.1-1.5-1.7-2.2-.7-.6-1.3-1.2-2.2-1.7l-.3-.3c1.4-.6 2.7-1.3 4-2 1.4-.8 2.8-1.7 4.2-2.5 2.3-1.5 4.6-3 6.8-4.6-.1 1-.3 1.9-.5 2.9v.3c.9 5 2 10 3.3 15 1.2 5 2.6 9.9 4.1 14.7s3.2 9.7 5 14.5c.9 2.5 1.9 4.8 2.9 7.2zm11.2-36.1c-1.3.4-2.5.8-3.8 1.5-.3.2-.6.4-.9.7-.2.3-.4.5-.6.8-.4.5-.8 1-1.1 1.5-.8.9-1.6 1.8-2.5 2.6-.4.4-.9.9-1.4 1.3-.5.4-1 .9-1.4 1.4-.9 1-1.6 2-2.4 3.1-.9 1.4-1.8 2.9-2.5 4.3-.3-1-.6-2.1-.9-3.1-1.4-4.9-2.7-9.8-3.9-14.7-1.2-4.7-2.2-9.4-3.2-14.1.1-.3.1-.6.2-1 .2-1.4 1.8-4.9 2.8-7.6l1.5-4.7c0 .1.6 2.1 1.5 5.2 1.4 3.6 4.6 8.6 7.2 10.9 2.5 2.2 4.7 4.6 7.2 6.9l5.5 4.9c-.5-.1-.9 0-1.3.1zm21.3 12.8c-.7-1.1-1.5-2.1-2.4-3.1-.4-.5-.9-.9-1.4-1.4-.5-.4-.9-.8-1.4-1.3-.9-.9-1.8-1.7-2.5-2.6-.4-.5-.7-.9-1.1-1.5-.2-.3-.4-.5-.6-.8-.3-.3-.6-.5-.9-.7-1.2-.7-2.5-1.1-3.8-1.5-.4-.1-.8-.2-1.3-.3l5.5-4.9c2.5-2.2 4.6-4.4 7.1-6.6 5-4.9 6.6-9.1 7.5-11.9 1.1-3.5 1.3-4.1 1.3-4.2 0 0 1.1 3.2 2.1 6.1.7 2 2.3 6.7 2.3 7-1 4.7-2 9.4-3.2 14.1-1.2 4.9-2.5 9.8-3.9 14.7-.3 1.1-.6 2.1-.9 3.1-.7-1.3-1.5-2.8-2.4-4.2zm-6 30.2c.2-.1.3-.5.4-.8l.4-.9c.3-.6.5-1.2.8-1.7.5-1.2 1-2.3 1.5-3.5 1-2.4 2-4.7 2.8-7.1 1.8-4.8 3.5-9.6 5-14.5s2.9-9.8 4.1-14.7c1.3-4.9 2.3-9.9 3.3-15v-.3c-.2-.9-.4-1.9-.5-2.9 2.2 1.6 4.5 3.1 6.8 4.6 1.4.9 2.8 1.7 4.2 2.5 1.3.7 2.6 1.4 3.9 2l-.3.3c-.8.5-1.5 1.1-2.1 1.7-.6.6-1.2 1.4-1.7 2.2-.9-.6-1.8-1.1-2.6-1.8-2.4-1.6-4.8-3.4-7.3-5l3.3 3c1.1 1 2.2 1.9 3.4 2.9 2.1 1.7 4.2 3.4 6.6 4.9l-4.8 10.6-5 11.2L129 209c-1.6 3.6-3.2 7.3-5 10.8l-12.3.3zm36.6-.7-24.2.5c1.1-1.6 2.2-3.2 3.1-4.9 1.1-1.8 2-3.6 3-5.4 1.9-3.6 3.7-7.3 5.5-11 1.7-3.7 3.4-7.4 5.1-11.2 1.6-3.8 3.2-7.5 4.7-11.4.1-.4 0-.8-.4-1-1.2-.7-2.5-1.5-3.7-2.3-.2-.2-.5-.3-.7-.5.8-.4 1.4-1 2-1.6 5.8 1.3 11.5 2.7 17.2 4.1 2.9.7 5.7 1.5 8.5 2.3 1.4.4 2.8.9 4.1 1.6 1.3.6 2.5 1.4 3.5 2.3-2.4 2.2-4.1 5.1-5.4 8.1-.7 1.6-1.1 3.4-1.4 5.1-.3 1.7-.6 3.4-.8 5.1-.4 3.4-.6 6.8-.7 10.3-.1 3.2-.1 6.4.1 9.6-6.4 0-12.9.1-19.5.3zm19.7-.3c.5-3.1.9-6.3 1.3-9.4l1.1-10.1c.2-1.7.4-3.4.6-5 .2-1.7.6-3.3 1.1-4.9.9-3 2.2-5.9 4-8.6.2.1.4.1.6 0 .5-.3 1.4-.4 2.1-.2.4.1.8.2 1.1.4.1 0 .2.1.2.1v.1c.1.1.1.3.2.5.5 1.6.7 3.5.9 5.3.4 3.6.6 7.3.9 10.9.4 7 .7 13.9.8 20.9-4.8-.1-9.8-.1-14.9 0z" fill="#672208" stroke-width="none" opacity="1"></path></g><g id="svga-group-head" transform="matrix(1,0,0,1,0,0)"><g id="svga-group-ears-left-move" transform="matrix(1,0,0,1,0,0)"><g id="svga-group-ears-left" transform="matrix(1,0,0,1,0,0)"><path id="SvgjsPath33978" d="M58.8 91.7s-2.6-4.9-5.3-5.7-4.4.7-3.9 6.6 5.2 23.2 10.6 22.2c5.4-1.1.9-19.6-1.4-23.1z" fill="#d79468" stroke-width="none" opacity="1" stroke="none"></path><path id="SvgjsPath33979" d="M59.8 93.6c.3.7.6 1.5.8 2.2.5 1.5 1 3.1 1.4 4.8.4 1.6.7 3.4.9 5.2.1.9.2 1.8.2 2.7 0 .9 0 1.8-.1 2.8-.1.9-.3 1.8-.7 2.5-.3.7-.8 1.2-1.2 1.5-.9.5-1.9.4-2.8-.1-.9-.5-1.8-1.5-2.6-2.7s-1.4-2.5-2-4c-.6-1.4-1.1-3-1.6-4.5s-1-3.1-1.4-4.7-.8-3.3-1.1-5-.5-3.6-.3-5.4c.1-.9.3-1.8.7-2.4s.8-1 1.3-1.2.9-.2 1.4-.1.9.3 1.4.6c.9.6 1.7 1.5 2.5 2.5s1.5 2.2 2.2 3.4c.4.5.7 1.2 1 1.9zm-3.2-5c-.8-.9-1.6-1.6-2.5-1.9-.8-.3-1.7-.4-2.5-.1-.4.2-.7.4-1 .9s-.5 1.1-.6 1.8c-.2 1.4-.2 3.2.1 4.8.2 1.7.5 3.3.9 5 .8 3.2 1.8 6.3 3.1 8.9.6 1.3 1.3 2.5 2 3.5s1.5 1.8 2.3 2.2c.4.2.8.3 1.2.3s.8-.1 1.2-.4c.3-.2.7-.6.9-1.1s.4-1.2.5-1.9c.2-1.4.1-3.1 0-4.8-.1-1.7-.4-3.3-.7-5s-.7-3.3-1.1-4.9c-.4-1.6-1-3.1-1.7-4.3-.6-1-1.3-2.1-2.1-3z" fill="#c87d4d" stroke-width="none" opacity="1" stroke="none"></path><path id="SvgjsPath33980" d="M52.4 89.6c2.3 1.5 4.4 5.7 5.4 9.9v.1c0 .3-.2.4-.2.1-.4-1.2-.9-1.2-1.5 0-.1.8-.1 1.5.1 2.3.2.7.4 1.4.7 2 .5 1.2 1.2 2.1 1.8 3.1.2.3 0 .7-.2.6-1.4-1.1-3.4-4.7-3-7.8.2-1.5 1-2.3 1.6-1.7-.8-2.1-1.7-4-2.8-5.5-.6-.8-2-2.7-2.7-2.4-1.3.6-.6 4.8-.5 6.6 0 .3-.2.4-.3.1-.7-3.3-.8-9 1.6-7.4z" fill="#b86934" stroke-width="none" opacity="1" stroke="none"></path><path id="SvgjsPath33981" d="M58 108.6c-2.4-.9-4.2-4.8-5.2-9-.6-2.6-1.8-8.6.5-8.5.2 0 .3.5.1.6-2.2 1.1.2 9.2.9 11.1 1 2.6 2.2 4.4 3.8 5.4.1.1 0 .5-.1.4z" fill="#b86934" stroke-width="none" opacity="1" stroke="none"></path></g></g><g id="svga-group-ears-right-move" transform="matrix(1,0,0,1,0,0)"><g id="svga-group-ears-right" transform="matrix(1,0,0,1,0,0)"><path id="SvgjsPath33982" d="M141.2 91.7s2.6-4.9 5.3-5.7 4.4.7 3.9 6.6-5.2 23.2-10.6 22.2c-5.4-1.1-.9-19.6 1.4-23.1z" fill="#d79468" stroke-width="none" opacity="1" stroke="none"></path><path id="SvgjsPath33983" d="M141.1 91.7c.7-1.2 1.4-2.4 2.2-3.4s1.6-1.9 2.5-2.5c.5-.3.9-.5 1.4-.6s.9-.1 1.4.1.9.5 1.3 1.2c.4.6.6 1.5.7 2.4.2 1.8 0 3.7-.3 5.4-.3 1.7-.7 3.4-1.1 5-.4 1.6-.9 3.2-1.4 4.7s-1 3.1-1.6 4.5-1.3 2.8-2 4c-.8 1.2-1.6 2.2-2.6 2.7-.9.5-1.9.7-2.8.1-.5-.3-.9-.8-1.2-1.5s-.5-1.6-.7-2.5c-.1-.9-.1-1.8-.1-2.8 0-.9.1-1.8.2-2.7.2-1.8.5-3.5.9-5.2s.9-3.2 1.4-4.8c.3-.8.5-1.5.8-2.2.4-.7.7-1.4 1-1.9zm.1.1c-.7 1.2-1.2 2.7-1.7 4.3-.4 1.6-.8 3.2-1.1 4.9-.3 1.7-.5 3.3-.7 5-.1 1.6-.2 3.3 0 4.8.1.7.3 1.4.5 1.9s.6.9.9 1.1c.3.3.8.3 1.2.4.4 0 .8-.1 1.2-.3.8-.4 1.6-1.2 2.3-2.2s1.4-2.2 2-3.5c1.3-2.6 2.3-5.7 3.1-8.9.4-1.6.7-3.3.9-5 .2-1.6.3-3.4.1-4.8-.1-.7-.3-1.3-.6-1.8-.3-.4-.6-.7-1-.9-.8-.3-1.7-.2-2.5.1-.8.4-1.7 1-2.5 1.9-.7.7-1.4 1.8-2.1 3z" fill="#c87d4d" stroke-width="none" opacity="1" stroke="none"></path><path id="SvgjsPath33984" d="M147.6 89.6c-2.3 1.5-4.4 5.7-5.4 9.9v.1c0 .3.2.4.2.1.4-1.2.9-1.2 1.5 0 .1.8.1 1.5-.1 2.3-.2.7-.4 1.4-.7 2-.5 1.2-1.2 2.1-1.8 3.1-.2.3 0 .7.2.6 1.4-1.1 3.4-4.7 3-7.8-.2-1.5-1-2.3-1.6-1.7.8-2.1 1.7-4 2.8-5.5.6-.8 2-2.7 2.7-2.4 1.3.6.6 4.8.5 6.6 0 .3.2.4.3.1.7-3.3.8-9-1.6-7.4z" fill="#b86934" stroke-width="none" opacity="1" stroke="none"></path><path id="SvgjsPath33985" d="M142 108.6c2.4-.9 4.2-4.8 5.2-9 .6-2.5 1.8-8.5-.5-8.5-.2 0-.3.5-.1.6 2.2 1.1-.2 9.2-.9 11.1-1 2.6-2.2 4.4-3.8 5.4-.1.1 0 .5.1.4z" fill="#b86934" stroke-width="none" opacity="1" stroke="none"></path></g></g><g id="svga-group-faceshape-wrap" transform="matrix(1,0,0,1,0,0)"><g id="svga-group-faceshape-single"><path id="SvgjsPath34060" d="M143.6 82v-.3c-1.3-29.9-21.1-46.4-43.6-46.4S57.7 51.8 56.4 81.7v.3c0 2.4.3 22.6 3.7 32.7 3.6 10.8 8.9 14.9 16.2 21.4 7.4 6.5 9.5 14.2 11.5 16.6 2 2.4 8.9 2.4 12.2 1.5 3.3.9 10.2.9 12.2-1.5s4.1-10.2 11.5-16.6c7.4-6.5 12.6-10.6 16.2-21.4 3.3-10.1 3.7-30.3 3.7-32.7z" fill="#d79468" stroke-width="none" opacity="1" stroke="none"></path><path id="SvgjsPath34061" d="M112.2 152.7c2-2.4 4.1-10.2 11.5-16.6 7.4-6.5 12.6-10.6 16.2-21.4 3.3-10.1 3.7-30.3 3.7-32.7v-.3c-1.3-29.9-21.1-46.4-43.6-46.4S57.7 51.8 56.4 81.7v.3c0 2.4.3 22.6 3.7 32.7 3.6 10.8 8.9 14.9 16.2 21.4 7.4 6.5 9.5 14.2 11.5 16.6 2 2.4 8.9 2.4 12.2 1.5 3.3.9 10.2.9 12.2-1.5zm-11.5-1.1-.7-.2-.7.2c-1.8.5-4.2.6-6.3.4-1-.1-2.6-.1-4-2.2-1.1-2-2.2-4.4-3.6-6.5C82.4 138 75 132 75 132c-1.8-1.6-3.6-3.2-5.3-4.8-1.6-1.7-3.1-3.4-4.3-5.4-1.2-1.9-4.8-6-6.5-20-2.2-19-.6-26.8-.6-26.8 2.4-14.5 8.2-22.5 13.4-27.3 0 0 2.9-3.5 12.1-7.3 4.4-1.7 9-2.6 13.6-2.8 8.8-.5 13.9 1.5 13.9 1.5 9.2 2.7 17.2 7.9 22.8 15.6l2 3c.6 1 1.1 2.1 1.7 3.2.6 1.1 3 5.5 4.4 13.8.1.6.5 4 .5 4 .1 1.3.2 3.5.2 4.8-.1 7.3-.6 14.5-1.9 21.6-.7 3.8-1.6 7.5-3.1 11s-3.5 6.7-6 9.4-5.4 5.1-8.4 7.6c-1.4 1.2-3.1 2.6-4.5 4.1-1.5 1.5-2.7 3.2-3.8 4.9-1.1 1.7-2.1 3.5-3 5.3-.5.9-.9 1.7-1.3 2.5-1.3 2.4-4.4 2.2-5.3 2.2-1.6 0-3.5-.1-4.9-.5z" fill="#a9561f" stroke-width="none" opacity="1" stroke="none"></path></g></g><g id="svga-group-mouth-single-move" transform="matrix(1,0,0,1,0,0)"><g id="svga-group-mouth-single" transform="matrix(1,0,0,1,0,0)"><path id="SvgjsPath34140" d="M86.4 128s.3.4 2.5.8 4.9-1.7 4.9-1.7 3.6 1 6.3 1c2.8 0 5.5-1.5 5.5-1.5 1.3 1.3 3.8 2.2 5.3 2.5 1.6.3 3-.9 3-.9s-1.8-4.6-4.2-5.9-4.6-.1-6.2.4-3.8.6-6 .1c-2.2-.6-6.2-1.9-8.4.4s-3.2 4.8-3.2 4.8h.5z" fill="#A06B59" stroke-width="none" opacity="1" transform="translate(0 2)" stroke="none"></path><path id="SvgjsPath34141" d="M91.6 122.6c3.2-.6 5.3.3 5.1.1-4.1-1.6-7.2-.6-8.9 2.3-.1.3 1.6-1.9 3.8-2.4zm21.4 4.3c-1.3-2.5-2.4-4.3-4.1-4.8-2.9-.9-3.9.8-8.7 1.2.4.2 1.8.1 3.2-.3 3.2-.9 4.1-.9 5.4-.5 1.8.6 2.2 1.7 4.2 4.4z" fill="#af8273" stroke-width="none" opacity="1" transform="translate(0 2)" stroke="none"></path><path id="SvgjsPath34142" d="M95.7 130.6c2.4.8 5.6.9 8 .2.2-.1.2-.4-.1-.4-1.3 0-2.6.2-4 .2-1.3 0-2.6-.2-4-.3 0 0 0 .2.1.3z" fill="#dfa077" stroke-width="none" opacity="1" transform="translate(0 2)" stroke="none"></path><path id="SvgjsPath34143" d="M115 127.1c-2.5 1.4-4.3 1.7-5.7 1.2-1.2-.4-2.2-1.2-3.3-1.7.6-.3 1.2-.7 1.6-1.2.1-.1 0-.3-.2-.3-.7.2-1.2.6-1.8.9-1.5.8-3.2 1.3-4.9 1.5-2.9.3-6.1-.1-8.6-1.7-.2-.1-.3.1-.2.3.4.3.8.6 1.3.9-.6.3-1.1.7-1.6.9-1.3.5-4.1.4-6.6-1.1-.2-.1.9 1 1.8 1.5 1.3.9 3.1.9 4.5.4.8-.2 2.1-.7 2.5-1.5 3.4 1.6 8 1.3 11.4-.4.8 1.1 2.7 1.8 4 2.2 1.4.4 3.2 0 4.3-.8.3.1 1.7-1.1 1.5-1.1z" fill="#915642" stroke-width="none" opacity="1" transform="translate(0 2)" stroke="none"></path><path id="SvgjsPath34144" d="M108.1 131.5c-2.5.5-4.7 1.5-7.3 1.6-2.9.1-5.8-.3-8.5-1.3-.1-.1.9.8 1.1.9 4.2 2.5 8.8 3 13.5 0 .2-.3 1.4-1.3 1.2-1.2z" fill="#c87d4d" stroke-width="none" opacity="1" transform="translate(0 2)" stroke="none"></path></g></g><g id="svga-group-eyes-left-move" transform="matrix(1,0,0,1,0,0)"><g id="svga-group-eyes-left" transform="matrix(1,0,0,1,0,0)"><g id="svga-group-eyesback-left"><path id="SvgjsPath34016" d="M90.2 96.4s-.9.8-3.3 1.1-8.7 1.1-13.3-.2c-4.6-1.3-4.2-1.5-4.3-2.1-.1-.5.7-2.4 5-3.2 4.3-.8 8.5.1 10.6.9 2 .9 5.3 3.5 5.3 3.5z" fill="#ffffff" stroke-width="none" opacity="1"></path></g><g id="svga-group-eyesiriswrapper-left" transform="matrix(1,0,0,1,0,0)"><g id="svga-group-eyesiriscontrol-left" transform="matrix(1,0,0,1,0,0)"><g id="svga-group-eyesiris-left" transform="matrix(1,0,0,1,0,0)"><path id="SvgjsPath34075" d="M80.1 88c3 0 5.5 2.5 5.5 5.5S83.1 99 80.1 99s-5.5-2.5-5.5-5.5 2.5-5.5 5.5-5.5z" fill="#ea02f5" stroke-width="none" opacity="1"></path><path id="SvgjsPath34076" d="M80.1 89.7c2.1 0 3.8 1.7 3.8 3.8s-1.7 3.8-3.8 3.8-3.8-1.7-3.8-3.8 1.7-3.8 3.8-3.8z" fill="#000000" stroke-width="none" opacity="1"></path><path id="SvgjsPath34077" d="m76.1 91 4.3 3-1.7-5c-.4-.4-2.5.8-2.6 2z" fill="#ffffff" stroke-width="none" opacity="1"></path></g></g></g><g id="svga-group-eyesfront-left"><path id="SvgjsPath34024" d="M73.6 97.3c4.6 1.3 10.9.5 13.3.2 2.4-.3 3.3-1.1 3.3-1.1s-3.2-2.6-5.3-3.5c-2.1-.9-6.3-1.7-10.6-.9-3.2.6-4.4 1.8-4.8 2.5 0-6.3 4.8-11.5 10.6-11.5 5.9 0 10.6 5.2 10.6 11.5S86 106 80.1 106c-5.5 0-10-4.5-10.6-10.4.3.5 1.2.8 4.1 1.7z" fill="#d79468" stroke-width="none" opacity="1" stroke="none"></path><path id="SvgjsPath34025" d="M90.1 95.9c-1.2-3.3-4.1-5.6-7.5-6.2-3.9-.7-7.5 1-10.7 2.9-.1 0-.2-.1-.1-.1 5.5-4.7 16.4-4.9 18.5 3.5-.1-.1-.2 0-.2-.1z" fill="#c87d4d" stroke-width="none" opacity="1" stroke="none"></path><path id="SvgjsPath34026" d="M90.2 96.6c-5.3-4.4-12.4-6.2-18.9-3.1-.3.1-.5.3-.8.4-1 1.3-.9 2.1.4 2.2.7.2 1.4.4 2.1.5 1.8.4 3.7.6 5.6.7 3.4.2 6.7-.1 10-.4.2 0 .2.2 0 .3-4.4 1.4-9.2 1.3-13.7.7-1.6-.2-8.7-.9-5.9-4.3 1-1.2 3.2-1.7 4.7-2 2.1-.5 4.2-.6 6.3-.4 3.8.5 7.7 2.3 10.3 5.2.2.1 0 .3-.1.2z" fill="#5fa2a5" stroke-width="none" opacity="1" stroke="none"></path></g></g></g><g id="svga-group-eyes-right-move" transform="matrix(1,0,0,1,0,0)"><g id="svga-group-eyes-right" transform="matrix(1,0,0,1,0,0)"><g id="svga-group-eyesback-right"><path id="SvgjsPath34017" d="M109.8 96.4s.9.8 3.3 1.1 8.7 1.1 13.3-.2c4.6-1.3 4.2-1.5 4.3-2.1.1-.5-.7-2.4-5-3.2-4.3-.8-8.5.1-10.6.9-2 .9-5.3 3.5-5.3 3.5z" fill="#ffffff" stroke-width="none" opacity="1"></path></g><g id="svga-group-eyesiriswrapper-right" transform="matrix(1,0,0,1,0,0)"><g id="svga-group-eyesiriscontrol-right" transform="matrix(1,0,0,1,0,0)"><g id="svga-group-eyesiris-right" transform="matrix(1,0,0,1,0,0)"><path id="SvgjsPath34078" d="M119.9 88c3 0 5.5 2.5 5.5 5.5s-2.5 5.5-5.5 5.5-5.5-2.5-5.5-5.5 2.5-5.5 5.5-5.5z" fill="#ea02f5" stroke-width="none" opacity="1"></path><path id="SvgjsPath34079" d="M119.9 89.7c2.1 0 3.8 1.7 3.8 3.8s-1.7 3.8-3.8 3.8-3.8-1.7-3.8-3.8 1.7-3.8 3.8-3.8z" fill="#000000" stroke-width="none" opacity="1"></path><path id="SvgjsPath34080" d="m115.9 91 4.3 3-1.7-5c-.3-.4-2.4.8-2.6 2z" fill="#ffffff" stroke-width="none" opacity="1"></path></g></g></g><g id="svga-group-eyesfront-right"><path id="SvgjsPath34027" d="M126.4 97.3c-4.6 1.3-10.9.5-13.3.2-2.4-.3-3.3-1.1-3.3-1.1s3.2-2.6 5.3-3.5c2.1-.9 6.3-1.7 10.6-.9 3.2.6 4.4 1.8 4.8 2.5 0-6.3-4.8-11.5-10.6-11.5-5.9 0-10.6 5.2-10.6 11.5S114 106 119.9 106c5.5 0 10-4.5 10.6-10.4-.3.5-1.2.8-4.1 1.7z" fill="#d79468" stroke-width="none" opacity="1" stroke="none"></path><path id="SvgjsPath34030" d="M109.9 95.9c1.2-3.3 4.1-5.6 7.5-6.2 3.9-.7 7.5 1 10.7 2.9.1 0 .2-.1.1-.1-5.5-4.7-16.4-4.9-18.5 3.5.1-.1.2 0 .2-.1z" fill="#c87d4d" stroke-width="none" opacity="1" stroke="none"></path><path id="SvgjsPath34031" d="M109.8 96.6c5.3-4.4 12.4-6.2 18.9-3.1.3.1.5.3.8.4 1 1.3.9 2.1-.4 2.2-.7.2-1.4.4-2.1.5-1.8.4-3.7.6-5.6.7-3.4.2-6.7-.1-10-.4-.2 0-.2.2 0 .3 4.4 1.4 9.2 1.3 13.7.7 1.6-.2 8.7-.9 5.9-4.3-1-1.2-3.2-1.7-4.7-2-2.1-.5-4.2-.6-6.3-.4-3.8.5-7.7 2.3-10.3 5.2-.2.1 0 .3.1.2z" fill="#5fa2a5" stroke-width="none" opacity="1" stroke="none"></path></g></g></g><g id="svga-group-facehighlight-single"></g><g id="svga-group-eyebrows-left-move" transform="matrix(1,0,0,1,0,0)"><g id="svga-group-eyebrows-left-rotate" transform="matrix(1,0,0,1,0,0)"><g id="svga-group-eyebrows-left" transform="matrix(1,0,0,1,0,0)"><path id="SvgjsPath33926" d="M66 90.3s4.7-7.2 13.9-10.6c4.6-1.7 11.7-.6 12.4 1 .7 1.5-.2 2.5-.5 3.3s-2.7 1.7-6.2 1.1c-1.3-.2-8.3-2.1-9.3-1.9s-7.8 3.5-10.3 7.1z" fill="#6b4e40" stroke-width="none" opacity="1"></path><path id="SvgjsPath33927" d="M76.8 82.6c1.1-.5 2.4-.7 3.6-1.1.1 0 .2.2.1.2-1.1.5-2.4 1.1-3.7 1-.1.1-.1 0 0-.1zm8.4-2.1c.1-.1.2 0 .2.1-.5.8-1.2 1.2-2 1.5-1.3.5-2.7 1-4.1 1.2-.1 0-.2-.2-.1-.2 1.9-1 4.7-.9 6-2.6zm-1.9 3.3c1.2-.3 2.4-.4 3.5-.9s2.1-1.3 2.9-2.2c.1-.1.3 0 .2.2-1.2 2.2-4.1 3.6-6.6 3.2-.1-.1-.1-.3 0-.3zm3.4.3c.9-.3 1.7-.5 2.5-1s1.7-1.3 1.8-2.4c0-.2.3-.1.3 0-.1 2-2.8 3.9-4.7 3.6-.1 0 0-.2.1-.2zm-13-.2c.6-.8 1.7-1.3 2.5-1.7.1-.1.2.1.1.2-.8.5-1.7 1.2-2.6 1.7 0 0-.1-.1 0-.2z" fill="#7a6155" stroke-width="none" opacity="1"></path><path id="SvgjsPath33928" d="M65.7 90.7c.1.1.1.1.2 0 .8-.8 1.5-1.7 2.4-2.5.8-.8 1.8-1.3 2.7-1.9 1.8-1.2 3.4-2.3 5.5-3.1 4.2.3 17.5 6.1 16.3-2.5v-.2c0-.2-.2-.2-.3 0v.1c-.1-.5-.4-1-.9-1.1-.1 0-.1 0-.1.1l.1.1c-.5-.4-1.4-.7-1.9-.6-4.1-1.5-9.8.3-13.5 1.9-4.3 2-8.1 5.2-10.4 9.4-.2.2-.2.3-.1.3zm2.3-2.8c5.4-5.9 14.5-11.2 22.2-8.1.1 0 .2-.1.2-.1.1 0 .1 0 .2.1.5.2.8.5 1 1 .1.1.2 0 .2-.1 0-.2 0-.3-.1-.5l.1.1c.2.3.3.6.2 1-.1.1-.2.2-.2.3 0 .1 0 .1.1.1.2.1.4-.2.6-.3-.5 7.3-12.6.8-16.4 1.6 0 0-.1 0-.1.1-2.1.4-3.8 1.9-5.6 3.1-.9.5-1.7 1.1-2.4 1.7z" fill="#5c3d2e" stroke-width="none" opacity="1"></path></g></g></g><g id="svga-group-eyebrows-right-move" transform="matrix(1,0,0,1,0,0)"><g id="svga-group-eyebrows-right-rotate" transform="matrix(1,0,0,1,0,0)"><g id="svga-group-eyebrows-right" transform="matrix(1,0,0,1,0,0)"><path id="SvgjsPath33929" d="M134 90.3s-4.7-7.2-13.9-10.6c-4.6-1.7-11.7-.6-12.4 1-.7 1.5.2 2.5.5 3.3s2.7 1.7 6.2 1.1c1.3-.2 8.3-2.1 9.3-1.9s7.8 3.5 10.3 7.1z" fill="#6b4e40" stroke-width="none" opacity="1"></path><path id="SvgjsPath33930" d="M123.2 82.6c-1.1-.5-2.4-.7-3.6-1.1-.1 0-.2.2-.1.2 1.1.5 2.4 1.1 3.7 1 .1.1.1 0 0-.1zm-8.4-2.1c-.1-.1-.2 0-.2.1.5.8 1.2 1.2 2 1.5 1.3.5 2.7 1 4.1 1.2.1 0 .2-.2.1-.2-1.9-1-4.7-.9-6-2.6zm1.9 3.3c-1.2-.3-2.4-.4-3.5-.9s-2.1-1.3-2.9-2.2c-.1-.1-.3 0-.2.2 1.2 2.2 4.1 3.6 6.6 3.2.1-.1.1-.3 0-.3zm-3.4.3c-.9-.3-1.7-.5-2.5-1s-1.7-1.3-1.8-2.4c0-.2-.3-.1-.3 0 .1 2 2.8 3.9 4.7 3.6.1 0 0-.2-.1-.2zm13-.2c-.6-.8-1.7-1.3-2.5-1.7-.1-.1-.2.1-.1.2.8.5 1.7 1.2 2.6 1.7 0 0 .1-.1 0-.2z" fill="#7a6155" stroke-width="none" opacity="1"></path><path id="SvgjsPath33931" d="M134.4 90.5c-2.3-4.2-6.1-7.4-10.4-9.4-3.7-1.7-9.4-3.4-13.5-1.9-.5-.1-1.4.1-1.9.6l.1-.1c0-.1-.1-.1-.1-.1-.5.1-.8.6-.9 1.1v-.1c0-.2-.3-.1-.3 0v.2c-1.2 8.6 12.2 2.8 16.3 2.5 2 .8 3.7 1.9 5.5 3.1.9.6 1.9 1.1 2.7 1.9.8.8 1.5 1.7 2.4 2.5.1.1.2 0 .2 0-.1-.1-.1-.2-.1-.3zm-4.8-4.3c-1.8-1.1-3.5-2.6-5.6-3.1 0 0 0-.1-.1-.1-3.8-.8-15.9 5.7-16.3-1.7.1.2.3.4.6.3.1 0 .1-.1.1-.1 0-.1-.1-.2-.2-.3-.1-.4 0-.7.2-1l.1-.1c-.1.2-.1.3-.1.5 0 .1.2.2.2.1.2-.5.5-.8 1-1 .1 0 .1 0 .2-.1 0 .1.1.2.2.1 7.8-3.1 16.8 2.2 22.3 8.1-.9-.5-1.7-1.1-2.6-1.6z" fill="#5c3d2e" stroke-width="none" opacity="1"></path></g></g></g><g id="svga-group-beardwrap" transform="matrix(1,0,0,1,0,0)"><g id="svga-group-beard-single-move" transform="matrix(1,0,0,1,0,0)"><g id="svga-group-beard-single" transform="matrix(1,0,0,1,0,0)"><path id="SvgjsPath33917" d="M90.9 134.6s8.5 2.7 18.5.5c0 0-.7 3.4-1.7 5.2-1 1.8-2.7 3.8-2.7 3.8l.2-.9s-.9 1-1.9 1.6l-.1-.6s-1 .9-2.5 1.5l-2-.8.1.4s-2.4-.5-3.6-2.4l-.2.5c-.1.2-3.8-3.6-4.1-8.8z" fill="#6b4e40" stroke-width="none" opacity="1"></path><path id="SvgjsPath33918" d="M94.4 140.9c-.1-.2-.4-.1-.3.1.2.7.6 1.4 1 1.9-.7-.7-1.4-1.5-1.9-2.5-.6-1.2-1-2.5-1.5-3.8 0-.1-.1-.1-.2-.1-.1-.6-.2-1.1-.2-1.8 0-.2-.3-.2-.3 0-.4 2.2.4 4.8 1.8 6.6.1.1.2.1.2 0 .6 1.1 1.5 2 2.5 2.3.1 0 .1 0 .1-.1.3.3.6.6 1 .8.2.1.3-.1.2-.2-1-1-1.9-1.9-2.4-3.2zm8.4 2.3c-.8.8-1.5 1.7-2.4 2.4-.4-.4-.8-.7-1.2-1-.4-.4-.8-.9-1.2-1.4-.2-.2-.6 0-.4.2.3.5.8 1.1 1.2 1.5l.2.2c-.5-.4-1-.7-1.4-1.1-.5-.5-.9-1-1.3-1.6-.2-.2-.5 0-.3.2.6 1.2 1.5 2.8 3.1 2.9.2 0 .2-.2.2-.3.3.3.6.5.9.6-.1.2.1.4.3.3 1.1-.7 2.1-1.6 2.6-2.8 0 0-.2-.2-.3-.1zm1.8-.4c-.3.3-.5.6-.8.9-.3.2-.6.5-.9.8-.1.1 0 .1 0 .1l-.2.2c-.1.1 0 .3.2.2.8-.4 1.5-1.2 1.9-2.1 0-.1-.1-.3-.2-.1zm2-2.1c-.6 1.2-1.3 2.3-2.3 3.2-.2.1.1.4.2.2 1-.9 1.8-2.1 2.2-3.4h-.1zm2.7-5.4c0-.2-.2-.2-.3 0-.3.9-.4 1.9-.7 2.8l-.3.9c-.5 1.1-1 2.1-1.7 3-.1.2.2.3.3.2.3-.4.6-.8.8-1.3.1.1.2.1.3 0 1.1-1.5 1.8-3.7 1.6-5.6zm-14.7 5.6c.3.4.7.8 1.2 1.1.1.1.3-.1.2-.2-.7-1-1.5-1.9-1.9-3.1-.1-.2-.3-.1-.3 0-.2-.6-.4-1.2-.5-1.8 0-.2-.4-.2-.4.1.2 1.4.6 2.9 1.7 3.9-.1 0 0 0 0 0zm2.5 1.6c.1.1.2-.1.1-.2-.5-.5-1-1-1.4-1.6-.1-.1-.3 0-.2.1.4.6.8 1.3 1.5 1.7zm-4.2-4.9c-.1-.6-.2-1.1-.4-1.6 0-.1-.2-.1-.2.1.1.5.2 1.1.4 1.6.1 0 .2 0 .2-.1zm3.8 2.5c.2.8.6 1.6 1.1 2.3.1.1.3 0 .3-.2-.6-1.2-1.2-2.3-1.3-3.7 0-.2-.4-.2-.4 0v.4c-.2-.9-.3-1.7-.5-2.6 0-.2-.3-.1-.3 0-.1 1.3.1 2.7.7 3.9.2.1.4.1.4-.1zm1.6 1.7c.3.9.9 1.9 1.7 2.5.1.1.2-.1.1-.2-.7-.8-1.2-1.4-1.6-2.4 0-.2-.3-.1-.2.1zm2 1.2c.1.6.1 1.2.2 1.8 0 .2.3.1.3 0 .2-.6 0-1.3-.1-1.9-.1-.2-.4-.1-.4.1zm-.4-2.7c-.3-.6-.6-1.3-.7-2 0-.2-.3-.2-.3 0 .1.8.3 1.5.8 2.1.1.1.3 0 .2-.1zm.8 1.1c.1-.6-.1-1.4-.1-2 0-.2-.3-.2-.3 0 .1.7.1 1.4.2 2 0 .1.2.1.2 0zm1.7 1.9c.8-.8 1.2-1.9 1.5-2.9.1-.2-.3-.3-.4-.1-.4 1-.9 1.9-1.3 2.9-.1.1.1.2.2.1zm-4.5-3.9c.3 1.1.8 2.6 1.9 3.2.2.1.4-.1.3-.3-.3-.5-.7-1-1.1-1.5v-.2c-.3-1.3-.7-2.7-1.1-4 0-.2-.3-.1-.3 0 .1.8.2 1.7.4 2.5-.1.2-.1.2-.1.3zm6.1 3.2c.6-.6.8-1.6 1-2.4.1-.2-.3-.3-.4-.1-.1.4-.3.9-.4 1.3-.2.3-.4.6-.5 1 0 .2.2.4.3.2zm1.9-2.6c.2-.5.3-1.1.5-1.6.1-.2-.3-.3-.4-.1-.2.5-.3 1.1-.4 1.6 0 .2.2.2.3.1zm.9-.7c.4-.7.5-1.5.6-2.2 0-.2-.3-.3-.4-.1-.1.8-.4 1.5-.5 2.2 0 .1.3.3.3.1z" fill="#5c3d2e" stroke-width="none" opacity="1"></path></g></g></g><g id="svga-group-mustache-single-move" transform="matrix(1,0,0,1,0,0)"><g id="svga-group-mustache-single" transform="matrix(1,0,0,1,0,0)"></g></g><g id="svga-group-nose-single-move" transform="matrix(1,0,0,1,0,0)"><g id="svga-group-nose-single" transform="matrix(1,0,0,1,0,0)"><path id="SvgjsPath34118" d="M107.6 109.82c1.26.73 3.11 2.76 1.66 5.68-1.46 2.92-4.61 2.05-4.61 2.05s-1.02 2.88-2.72 3.63-3.98.63-5.04-.91-1.78-2.5-1.78-2.5-3.39-.11-4.88-1.45c-1.5-1.34-1.22-3.51-.83-4.3s1.14-1.46 2.33-1.89c1.18-.43 3.19-1.69 3.63-2.21.43-.51 4.09-2.73 8.16-.12 1.64 1.08 2.39 1.04 4.08 2.02z" fill="#d79468" stroke-width="none" opacity="1" transform="translate(0 1)" stroke="none"></path><path id="SvgjsPath34119" d="M95.61 107.76c1.87-1.78 1.73-4.89 1.31-7.36-.38-2.21-1.03-4.45-.71-6.72.26-1.84 1.12-3.49 1.21-5.38.01-.21-.3-.26-.33-.05-.26 1.63-.88 3.1-1.24 4.7-.32 1.44-.29 2.89-.07 4.34.54 3.59 1.68 7.03-.35 10.31-.08.13.09.25.18.16z" fill="#a9561f" stroke-width="none" opacity="1" transform="translate(0 1)" stroke="none"></path><path id="SvgjsPath34120" d="M107.35 109.55c-.14-.03-.23.17-.1.27 1.33.99 2.54 2.45 2.16 4.42-.29 1.49-1.26 2.32-2.4 2.79.4-.33.81-.64 1.13-1.06.34-.42.14-1.3-.45-1.23-.68.07-1.24.41-1.78.84.31-.8.6-1.57.91-2.24.06-.13-.08-.26-.18-.16-2.26 2.2-2.28 7.02-5.6 7.95-4.03 1.12-6.08-3.8-6.88-7.3-.08-.34-.5-.19-.45.14.07.47.16.95.28 1.43-.11-.07-.22-.14-.34-.2-.74-.39-1.56-.43-2.28.05-.44.29-.41 1.19.15 1.31.36.07.74.18 1.08.35-.6-.04-1.2-.12-1.7-.45-1.1-.73-1.73-2.31-1.36-3.71.35-1.32 1.28-1.86 2.27-2.45.13-.08.07-.31-.08-.31-2.1-.01-3.37 2.86-2.78 4.92.85 2.99 3.71 2.74 5.92 3.32.05.01.09 0 .13-.01 1.06 2.08 2.71 3.69 5.01 3.78 2.23.09 3.62-1.53 4.66-3.55.06.03.12.05.19.04.49-.04.9-.32 1.27-.65 4.16.68 5.48-7.4 1.22-8.29z" fill="#a9561f" stroke-width="none" opacity="1" transform="translate(0 1)" stroke="none"></path><path id="SvgjsPath34121" d="M101.66 88.39c-.31-.35-.82.01-.72.47.28 1.34.83 2.48.87 3.89.04 1.34-.19 2.66-.38 3.97-.27 1.89-.43 4.14.57 5.8.19.31.6.19.63-.19.24-4.29 2.26-10.35-.97-13.94z" fill="#dfa077" stroke-width="none" opacity="1" transform="translate(0 1)" stroke="none"></path><path id="SvgjsPath34122" d="M104.63 111.57c-.24-.84-1.29-1.06-1.7-.25-.55 1.07-.43 2.41-.88 3.55-.44 1.09-1.22 1.69-2.05 2.37-.36.29-.28.81.12 1 2.9 1.37 5.23-4.16 4.51-6.67z" fill="#dfa077" stroke-width="none" opacity="1" transform="translate(0 1)" stroke="none"></path></g></g><g id="svga-group-hair-front" transform="matrix(1,0,0,1,0,0)"><path id="SvgjsPath34169" d="M84.9 37.3s1 3.5 4.1 5.4c3.1 1.9 8.7 2.5 8.7 2.5s6.6 1.3 8.9.8c2.3-.5 5.9-2.2 5.9-2.2s1.4-.2 2.4-1.8.3-4.4.3-4.4-1.6-3-6.7-3.2c0 0-4.8-1-7.2-.7-2.4.2-3.3 1-3.3 1s-3.9-.4-7.2 1.1c.1-.2-3.6 0-5.9 1.5zm52.9 20.9s3.6 2.5 3.7 7.5c0 0 1.7.8 1.6 6 0 0 1.4 2.5 1 6.3 0 0 .7 1.7.1 4-.2.7.7 3.6.2 4.5-3.4 5.5-5.6 4.5-5.6 4.5s-1.3-.7-.4-2.9c0 0-2.7.4-1.2-5.4 0 0-1.8-.3-1.2-3.5 0 0-1.7-1.8-.4-5.4 0 0-1.4-2-.1-4.3-.1 0 2-7.3 2.3-11.3zm-75.6 0s-3.6 2.5-3.7 7.5c0 0-1.7.8-1.6 6 0 0-1.4 2.5-1 6.3 0 0-.7 1.7-.1 4 .2.7-.7 3.6-.2 4.5C59 92 61.3 91 61.3 91s1.3-.7.4-2.9c0 0 2.7.4 1.2-5.4 0 0 1.8-.3 1.2-3.5 0 0 1.7-1.8.4-5.4 0 0 1.4-2 .1-4.3 0 0-2.1-7.3-2.4-11.3z" fill="#6b4e40" stroke-width="none" opacity="1" stroke="none"></path><path id="SvgjsPath34170" d="M136.2 70.3c.1-.9.1-1.9.2-2.8-.3.8-.6 1.6-1 2.2-.1.1-.2 0-.2-.1.4-2 1.1-3.8 1.4-5.8.3-2 .4-4 .7-6 0-.2.2-.2.3-.2h.1c2.6 1.1 4.2 5 4.3 8.4.1-.2.4-.3.5-.1.8 1.4 1 3.3.9 5.2.8 1.9 1.1 4.1.9 6.1 0 0 .1 0 .1.1.3 1.4.4 3.2.1 5 2.3 3.2-1.8 8.4-4.6 9.3-.3.1-.4-.3-.3-.5.9-1.2 2.3-1.9 3.2-3.1 1.1-1.4 1.3-2.8 1.3-4.3-.6 2.3-1.8 4.5-3.4 5.6-.1.1-.2-.1-.2-.2 1-1.9 2.2-3.3 2.9-5.4.5-1.6.6-3.3.7-5-.1.5-.2 1-.4 1.4-.1.2-.4.2-.4-.1.2-2.6.2-4.9-.1-7.4-.2.9-.5 1.8-.8 2.5-.1.3-.5.1-.4-.2.3-1.5.6-3.2.6-4.7 0-1.3-.4-2.6-.4-3.9 0 1.1-.1 2.1-.4 2.9-.1.2-.4.1-.4-.1-.1-2.1 0-4.1-.7-6.1-.6-1.8-1.7-2.9-2.6-4.3 0 2.6-.4 5.4-1.2 7.9.1 0 .3 0 .3.2.6 2.2-.1 5.1-1.2 6.9-.1.2-.5.1-.4-.2 0-1 .4-2.1.6-3.2zm1.9 3.2c.4-1.8.4-3.6.6-5.4 0-.2.4-.2.4 0 .4 2.2.1 4.8-.7 7.2.1 0 .2.1.2.2.2 2.5-.4 5.1-1.3 7.3-.1.2-.3.1-.3-.1.6-2.2.8-4.3 1-6.5-.5 1.2-1.1 2.3-1.8 3.2-.2.3-.6-.1-.4-.3 1-1.9 1.8-3.6 2.3-5.6zm3.1 7c.1-.3.5-.3.5.1-.2 2.8-1.5 5.4-3.1 7.6-.1.2-.5-.1-.4-.3 1.5-2.4 2.2-4.8 3-7.4zm-.6 5.6c.1-.2.4-.2.4.1-.1 1.8-.8 3.8-2.1 5-.2.2-.5 0-.4-.3.7-1.6 1.4-3.1 2.1-4.8zM63.8 70.3c-.2-.9-.2-1.9-.2-2.8.3.8.6 1.6 1 2.2.1.1.2 0 .2-.1-.4-2-1.1-3.8-1.4-5.8-.3-2-.4-4-.7-6 0-.2-.2-.2-.3-.2-2.5 1.1-4.2 5-4.3 8.4 0-.2-.4-.3-.5-.1-.8 1.4-1 3.3-.9 5.2-.8 1.9-1.1 4.1-.9 6.1 0 0-.1 0-.1.1-.3 1.4-.3 3.2 0 5-2.3 3.2 1.8 8.4 4.6 9.3.3.1.4-.3.3-.5-.8-1.2-2.3-1.9-3.2-3.1-1.1-1.4-1.3-2.8-1.3-4.3.6 2.3 1.8 4.5 3.4 5.6.1.1.2-.1.2-.2-1-1.9-2.2-3.3-2.8-5.4-.5-1.6-.6-3.3-.7-5 .1.5.2 1 .4 1.4.1.2.4.2.4-.1-.2-2.6-.2-4.9.1-7.4.2.9.5 1.8.8 2.5.1.3.5.1.4-.2-.3-1.5-.6-3.2-.6-4.7 0-1.3.3-2.6.4-3.9 0 1.1.1 2.1.4 2.9.1.2.4.1.4-.1.1-2.1 0-4.1.7-6.1.6-1.8 1.7-2.9 2.6-4.3 0 2.6.4 5.4 1.2 7.9-.1 0-.3 0-.3.2-.6 2.2.1 5.1 1.2 6.9.1.2.5.1.4-.2-.4-1-.7-2.1-.9-3.2zm-1.9 3.2c-.4-1.8-.4-3.6-.6-5.4 0-.2-.4-.2-.4 0-.4 2.2-.1 4.8.7 7.2-.1 0-.2.1-.2.2-.2 2.5.4 5.1 1.3 7.3.1.2.3.1.3-.1-.6-2.2-.8-4.3-1-6.5.5 1.2 1.1 2.3 1.8 3.2.2.3.6-.1.4-.3-1-1.9-1.8-3.6-2.3-5.6zm-3.1 7c-.1-.3-.5-.3-.5.1.2 2.8 1.5 5.4 3.1 7.6.2.2.5-.1.3-.3-1.4-2.4-2.1-4.8-2.9-7.4zm.7 5.6c-.1-.2-.4-.2-.4.1.1 1.8.8 3.8 2.1 5 .2.2.5 0 .4-.3-.8-1.6-1.6-3.1-2.1-4.8zm52.3-42.5c-2.2.7-4.2 1.6-6.5 1.8-2.3.2-4.5-.1-6.8-.5-.4-.1-.5.4-.2.6 4.1 1.7 10.2 1.5 13.8-1.4.3-.2 0-.6-.3-.5zm3.7-6.2c-.4-1.2-1.9-2.1-2.9-2.6-1.2-.6-2.5-.8-3.8-.6-.1 0-.1.1-.1.2-3.2-1.7-7.6-1.7-10.6-.3-.1 0-.1.1-.1.1-2.7-.5-5.7-.1-7.8 1.2-1.8-.1-3.7.3-5.1 1.7-.1.1-.1.2-.1.4-.2 0-.6.2-.4.5 1.5 4.6 7.3 8.2 12.2 7.7.4 0 .4-.5.1-.6-2.2-.9-4.4-1.2-6.5-2.3-2.2-1.2-3.7-2.9-5-5h.2c3.9-2.4 7.2-.6 10.9 1.2.2.1.5-.2.3-.4-1.3-1.4-3.2-2.4-5.1-2.9 1.5-.4 3-.7 4.7-.7 2.1.1 3.9.9 5.8 1.6.3.1.5-.3.3-.5-1-.8-2.3-1.3-3.6-1.7 2.3-.5 4.6-.6 6.8 0 2.4.6 3.9 2 5.9 3.2.3.2.6-.2.4-.4-.8-1.2-1.8-2-3-2.7 1.3 0 2.6.5 3.6 1.2.9.6 1.5 1.5 2.4 2.1.1 1.1.5 2 .1 3.1-.3 1.1-1.2 2-2.2 2.7-.3.2-.1.6.2.5 2.3-.9 4.3-4.5 2.4-6.7z" fill="#5c3d2e" stroke-width="none" opacity="1" stroke="none"></path><path id="SvgjsPath34171" d="M103.8 34.6c-.2 0-.4.3-.1.4 3.7.8 5.9 3.1 8.1 6 .2.2.5 0 .4-.2-1.1-3.5-4.9-5.7-8.4-6.2zm5.5 6.1c-.7-1.5-2.4-2.6-3.8-3.3-.2-.1-.5.2-.2.4.7.4 1.4.9 2 1.5.6.5 1 1.2 1.6 1.7.2.1.5-.1.4-.3zm-11.5-4.2c-.2-.1-.4.3-.2.4 1.4.8 2.8 1.7 3.9 2.8 1.2 1.2 2 2.5 2.9 3.8.2.3.7.1.6-.2-1.1-3.1-4.2-5.7-7.2-6.8zm42.6 29.3c-.1-.2-.4-.1-.3.1.4 2.9.1 5.8-.4 8.6-.1.3.4.4.5.1 1-2.9.9-5.9.2-8.8zm1.4 9.3c-.4 2-1 3.9-1.4 5.9 0 .2.3.4.4.2.9-1.8 1.2-4 1.5-6 0-.3-.4-.3-.5-.1zm.3 3.7c-.2 1.2-.6 2.1-1.1 3.2-.1.2.2.4.3.3.8-.9 1.2-2.2 1.3-3.4.1-.3-.4-.4-.5-.1zm-77.6-2.2c-1-1.7-2-3.1-2.2-5.1 0-.3-.5-.4-.6 0-.1 2 .7 4.3 2.4 5.4.2.2.5-.1.4-.3zm-2.7-11.3c-.1-.3-.5-.2-.5.1.3 1.6.6 3.2 1.2 4.8.1.2.4.2.4-.1-.2-1.6-.7-3.2-1.1-4.8zm-1.3 13.5c-.1-.3-.6-.2-.5.1.3 1.4.4 2.9 1 4.2.1.2.5.1.5-.1 0-1.4-.6-2.8-1-4.2zm78.7-17.6c-.1-.3-.4-.2-.5 0-.3 1-.3 2.1-.4 3.2-.2 1.1-.4 2.1-.6 3.2 0 .3.4.6.5.2.8-1.9 1.4-4.6 1-6.6z" fill="#7a6155" stroke-width="none" opacity="1" stroke="none"></path></g><g id="svga-group-glasses-single-move" transform="matrix(1,0,0,1,0,0)"><g id="svga-group-glasses-single" transform="matrix(1,0,0,1,0,0)"></g></g></g></g></g><rect id="svga-credit-rect" width="200" height="15" x="0" y="185" fill="#ecf0f1" opacity="0.5" style="display: none;"></rect><text id="svga-credit-text" font-family="Avenir Next, Roboto, Helvetica, Arial, sans-serif" font-size="10px" text-anchor="start" font-weight="400" size="10px" anchor="start" weight="400" fill="#333333" x="33.40447998046875" y="182.60824704170227" style="display: none;"><tspan id="SvgjsTspan33456" dy="13" x="33.40447998046875">Created on AvatarMaker.com</tspan></text></g></svg>